<?xml version="1.0" encoding="utf-8" standalone="no"?>
<!DOCTYPE svg PUBLIC "-//W3C//DTD SVG 1.1//EN"
  "http://www.w3.org/Graphics/SVG/1.1/DTD/svg11.dtd">
<svg xmlns:xlink="http://www.w3.org/1999/xlink" width="555.59952pt" height="209.99952pt" viewBox="0 0 555.59952 209.99952" xmlns="http://www.w3.org/2000/svg" version="1.1">
 <metadata>
  <rdf:RDF xmlns:dc="http://purl.org/dc/elements/1.1/" xmlns:cc="http://creativecommons.org/ns#" xmlns:rdf="http://www.w3.org/1999/02/22-rdf-syntax-ns#">
   <cc:Work>
    <dc:type rdf:resource="http://purl.org/dc/dcmitype/StillImage"/>
    <dc:format>image/svg+xml</dc:format>
    <dc:creator>
     <cc:Agent>
      <dc:title>Matplotlib v3.10.9, https://matplotlib.org/</dc:title>
     </cc:Agent>
    </dc:creator>
   </cc:Work>
  </rdf:RDF>
 </metadata>
 <defs>
  <style type="text/css">*{stroke-linejoin: round; stroke-linecap: butt}</style>
 </defs>
 <g id="figure_1">
  <g id="patch_1">
   <path d="M 0 209.99952
L 555.59952 209.99952
L 555.59952 -0
L 0 -0
z
" style="fill: #ffffff"/>
  </g>
  <g id="axes_1">
   <g id="patch_2">
    <path d="M 7.2 187.878819
L 213.045785 187.878819
L 213.045785 19.658672
L 7.2 19.658672
z
" style="fill: #ffffff"/>
   </g>
   <g id="PathCollection_1">
    <defs>
     <path id="m9e10b21032" d="M 0 2.236068
C 0.593012 2.236068 1.161816 2.000462 1.581139 1.581139
C 2.000462 1.161816 2.236068 0.593012 2.236068 0
C 2.236068 -0.593012 2.000462 -1.161816 1.581139 -1.581139
C 1.161816 -2.000462 0.593012 -2.236068 0 -2.236068
C -0.593012 -2.236068 -1.161816 -2.000462 -1.581139 -1.581139
C -2.000462 -1.161816 -2.236068 -0.593012 -2.236068 0
C -2.236068 0.593012 -2.000462 1.161816 -1.581139 1.581139
C -1.161816 2.000462 -0.593012 2.236068 0 2.236068
z
" style="stroke: #3b6fb6"/>
    </defs>
    <g clip-path="url(#pdfcf98d29f)">
     <use xlink:href="#m9e10b21032" x="184.918238" y="180.232449" style="fill: #3b6fb6; stroke: #3b6fb6"/>
     <use xlink:href="#m9e10b21032" x="203.689158" y="144.983825" style="fill: #3b6fb6; stroke: #3b6fb6"/>
     <use xlink:href="#m9e10b21032" x="188.788339" y="144.732642" style="fill: #3b6fb6; stroke: #3b6fb6"/>
     <use xlink:href="#m9e10b21032" x="190.170768" y="157.511935" style="fill: #3b6fb6; stroke: #3b6fb6"/>
     <use xlink:href="#m9e10b21032" x="186.864111" y="153.974557" style="fill: #3b6fb6; stroke: #3b6fb6"/>
     <use xlink:href="#m9e10b21032" x="176.144038" y="140.637545" style="fill: #3b6fb6; stroke: #3b6fb6"/>
     <use xlink:href="#m9e10b21032" x="187.133774" y="120.940131" style="fill: #3b6fb6; stroke: #3b6fb6"/>
     <use xlink:href="#m9e10b21032" x="191.106584" y="111.928358" style="fill: #3b6fb6; stroke: #3b6fb6"/>
     <use xlink:href="#m9e10b21032" x="173.8942" y="178.534349" style="fill: #3b6fb6; stroke: #3b6fb6"/>
     <use xlink:href="#m9e10b21032" x="187.173567" y="129.267765" style="fill: #3b6fb6; stroke: #3b6fb6"/>
    </g>
   </g>
   <g id="PathCollection_2">
    <defs>
     <path id="mf582504b7e" d="M 0 2.236068
C 0.593012 2.236068 1.161816 2.000462 1.581139 1.581139
C 2.000462 1.161816 2.236068 0.593012 2.236068 0
C 2.236068 -0.593012 2.000462 -1.161816 1.581139 -1.581139
C 1.161816 -2.000462 0.593012 -2.236068 0 -2.236068
C -0.593012 -2.236068 -1.161816 -2.000462 -1.581139 -1.581139
C -2.000462 -1.161816 -2.236068 -0.593012 -2.236068 0
C -2.236068 0.593012 -2.000462 1.161816 -1.581139 1.581139
C -1.161816 2.000462 -0.593012 2.236068 0 2.236068
z
" style="stroke: #c94c4c"/>
    </defs>
    <g clip-path="url(#pdfcf98d29f)">
     <use xlink:href="#mf582504b7e" x="17.902156" y="63.490081" style="fill: #c94c4c; stroke: #c94c4c"/>
     <use xlink:href="#mf582504b7e" x="23.042007" y="89.522414" style="fill: #c94c4c; stroke: #c94c4c"/>
     <use xlink:href="#mf582504b7e" x="36.634325" y="58.131538" style="fill: #c94c4c; stroke: #c94c4c"/>
     <use xlink:href="#mf582504b7e" x="27.613441" y="58.632307" style="fill: #c94c4c; stroke: #c94c4c"/>
     <use xlink:href="#mf582504b7e" x="31.424495" y="50.795233" style="fill: #c94c4c; stroke: #c94c4c"/>
     <use xlink:href="#mf582504b7e" x="16.556627" y="60.63533" style="fill: #c94c4c; stroke: #c94c4c"/>
     <use xlink:href="#mf582504b7e" x="19.863236" y="27.305042" style="fill: #c94c4c; stroke: #c94c4c"/>
     <use xlink:href="#mf582504b7e" x="27.207867" y="64.966806" style="fill: #c94c4c; stroke: #c94c4c"/>
     <use xlink:href="#mf582504b7e" x="21.051549" y="84.565098" style="fill: #c94c4c; stroke: #c94c4c"/>
     <use xlink:href="#mf582504b7e" x="25.308095" y="85.770101" style="fill: #c94c4c; stroke: #c94c4c"/>
    </g>
   </g>
   <g id="PathCollection_3">
    <defs>
     <path id="m82878c0432" d="M 0 2.236068
C 0.593012 2.236068 1.161816 2.000462 1.581139 1.581139
C 2.000462 1.161816 2.236068 0.593012 2.236068 0
C 2.236068 -0.593012 2.000462 -1.161816 1.581139 -1.581139
C 1.161816 -2.000462 0.593012 -2.236068 0 -2.236068
C -0.593012 -2.236068 -1.161816 -2.000462 -1.581139 -1.581139
C -2.000462 -1.161816 -2.236068 -0.593012 -2.236068 0
C -2.236068 0.593012 -2.000462 1.161816 -1.581139 1.581139
C -1.161816 2.000462 -0.593012 2.236068 0 2.236068
z
" style="stroke: #4a9a5b"/>
    </defs>
    <g clip-path="url(#pdfcf98d29f)">
     <use xlink:href="#m82878c0432" x="79.361732" y="57.258157" style="fill: #4a9a5b; stroke: #4a9a5b"/>
     <use xlink:href="#m82878c0432" x="96.191363" y="84.257115" style="fill: #4a9a5b; stroke: #4a9a5b"/>
     <use xlink:href="#m82878c0432" x="75.684182" y="72.493457" style="fill: #4a9a5b; stroke: #4a9a5b"/>
     <use xlink:href="#m82878c0432" x="93.947322" y="93.676562" style="fill: #4a9a5b; stroke: #4a9a5b"/>
     <use xlink:href="#m82878c0432" x="83.161171" y="63.662838" style="fill: #4a9a5b; stroke: #4a9a5b"/>
     <use xlink:href="#m82878c0432" x="85.937306" y="118.92459" style="fill: #4a9a5b; stroke: #4a9a5b"/>
     <use xlink:href="#m82878c0432" x="72.282467" y="92.185536" style="fill: #4a9a5b; stroke: #4a9a5b"/>
     <use xlink:href="#m82878c0432" x="88.898746" y="105.151245" style="fill: #4a9a5b; stroke: #4a9a5b"/>
     <use xlink:href="#m82878c0432" x="103.807482" y="86.714165" style="fill: #4a9a5b; stroke: #4a9a5b"/>
     <use xlink:href="#m82878c0432" x="97.908628" y="88.145711" style="fill: #4a9a5b; stroke: #4a9a5b"/>
    </g>
   </g>
   <g id="matplotlib.axis_1"/>
   <g id="matplotlib.axis_2"/>
   <g id="patch_3">
    <path d="M 7.2 187.878819
L 7.2 19.658672
" style="fill: none; stroke: #000000; stroke-width: 0.8; stroke-linejoin: miter; stroke-linecap: square"/>
   </g>
   <g id="patch_4">
    <path d="M 7.2 187.878819
L 213.045785 187.878819
" style="fill: none; stroke: #000000; stroke-width: 0.8; stroke-linejoin: miter; stroke-linecap: square"/>
   </g>
   <g id="text_1">
    <text style="font-size: 5px; font-family: 'Heiti SC', 'Heiti TC', 'Arial Unicode MS', 'DejaVu Sans'; text-anchor: start" x="19.902156" y="61.490081" transform="rotate(-0 19.902156 61.490081)">0</text>
   </g>
   <g id="text_2">
    <text style="font-size: 5px; font-family: 'Heiti SC', 'Heiti TC', 'Arial Unicode MS', 'DejaVu Sans'; text-anchor: start" x="81.361732" y="55.258157" transform="rotate(-0 81.361732 55.258157)">1</text>
   </g>
   <g id="text_3">
    <text style="font-size: 5px; font-family: 'Heiti SC', 'Heiti TC', 'Arial Unicode MS', 'DejaVu Sans'; text-anchor: start" x="98.191363" y="82.257115" transform="rotate(-0 98.191363 82.257115)">2</text>
   </g>
   <g id="text_4">
    <text style="font-size: 5px; font-family: 'Heiti SC', 'Heiti TC', 'Arial Unicode MS', 'DejaVu Sans'; text-anchor: start" x="186.918238" y="178.232449" transform="rotate(-0 186.918238 178.232449)">3</text>
   </g>
   <g id="text_5">
    <text style="font-size: 5px; font-family: 'Heiti SC', 'Heiti TC', 'Arial Unicode MS', 'DejaVu Sans'; text-anchor: start" x="77.684182" y="70.493457" transform="rotate(-0 77.684182 70.493457)">4</text>
   </g>
   <g id="text_6">
    <text style="font-size: 5px; font-family: 'Heiti SC', 'Heiti TC', 'Arial Unicode MS', 'DejaVu Sans'; text-anchor: start" x="205.689158" y="142.983825" transform="rotate(-0 205.689158 142.983825)">5</text>
   </g>
   <g id="text_7">
    <text style="font-size: 5px; font-family: 'Heiti SC', 'Heiti TC', 'Arial Unicode MS', 'DejaVu Sans'; text-anchor: start" x="95.947322" y="91.676562" transform="rotate(-0 95.947322 91.676562)">6</text>
   </g>
   <g id="text_8">
    <text style="font-size: 5px; font-family: 'Heiti SC', 'Heiti TC', 'Arial Unicode MS', 'DejaVu Sans'; text-anchor: start" x="85.161171" y="61.662838" transform="rotate(-0 85.161171 61.662838)">7</text>
   </g>
   <g id="text_9">
    <text style="font-size: 5px; font-family: 'Heiti SC', 'Heiti TC', 'Arial Unicode MS', 'DejaVu Sans'; text-anchor: start" x="190.788339" y="142.732642" transform="rotate(-0 190.788339 142.732642)">8</text>
   </g>
   <g id="text_10">
    <text style="font-size: 5px; font-family: 'Heiti SC', 'Heiti TC', 'Arial Unicode MS', 'DejaVu Sans'; text-anchor: start" x="25.042007" y="87.522414" transform="rotate(-0 25.042007 87.522414)">9</text>
   </g>
   <g id="text_11">
    <text style="font-size: 5px; font-family: 'Heiti SC', 'Heiti TC', 'Arial Unicode MS', 'DejaVu Sans'; text-anchor: start" x="192.170768" y="155.511935" transform="rotate(-0 192.170768 155.511935)">10</text>
   </g>
   <g id="text_12">
    <text style="font-size: 5px; font-family: 'Heiti SC', 'Heiti TC', 'Arial Unicode MS', 'DejaVu Sans'; text-anchor: start" x="188.864111" y="151.974557" transform="rotate(-0 188.864111 151.974557)">11</text>
   </g>
   <g id="text_13">
    <text style="font-size: 5px; font-family: 'Heiti SC', 'Heiti TC', 'Arial Unicode MS', 'DejaVu Sans'; text-anchor: start" x="87.937306" y="116.92459" transform="rotate(-0 87.937306 116.92459)">12</text>
   </g>
   <g id="text_14">
    <text style="font-size: 5px; font-family: 'Heiti SC', 'Heiti TC', 'Arial Unicode MS', 'DejaVu Sans'; text-anchor: start" x="178.144038" y="138.637545" transform="rotate(-0 178.144038 138.637545)">13</text>
   </g>
   <g id="text_15">
    <text style="font-size: 5px; font-family: 'Heiti SC', 'Heiti TC', 'Arial Unicode MS', 'DejaVu Sans'; text-anchor: start" x="38.634325" y="56.131538" transform="rotate(-0 38.634325 56.131538)">14</text>
   </g>
   <g id="text_16">
    <text style="font-size: 5px; font-family: 'Heiti SC', 'Heiti TC', 'Arial Unicode MS', 'DejaVu Sans'; text-anchor: start" x="29.613441" y="56.632307" transform="rotate(-0 29.613441 56.632307)">15</text>
   </g>
   <g id="text_17">
    <text style="font-size: 5px; font-family: 'Heiti SC', 'Heiti TC', 'Arial Unicode MS', 'DejaVu Sans'; text-anchor: start" x="189.133774" y="118.940131" transform="rotate(-0 189.133774 118.940131)">16</text>
   </g>
   <g id="text_18">
    <text style="font-size: 5px; font-family: 'Heiti SC', 'Heiti TC', 'Arial Unicode MS', 'DejaVu Sans'; text-anchor: start" x="33.424495" y="48.795233" transform="rotate(-0 33.424495 48.795233)">17</text>
   </g>
   <g id="text_19">
    <text style="font-size: 5px; font-family: 'Heiti SC', 'Heiti TC', 'Arial Unicode MS', 'DejaVu Sans'; text-anchor: start" x="18.556627" y="58.63533" transform="rotate(-0 18.556627 58.63533)">18</text>
   </g>
   <g id="text_20">
    <text style="font-size: 5px; font-family: 'Heiti SC', 'Heiti TC', 'Arial Unicode MS', 'DejaVu Sans'; text-anchor: start" x="193.106584" y="109.928358" transform="rotate(-0 193.106584 109.928358)">19</text>
   </g>
   <g id="text_21">
    <text style="font-size: 5px; font-family: 'Heiti SC', 'Heiti TC', 'Arial Unicode MS', 'DejaVu Sans'; text-anchor: start" x="21.863236" y="25.305042" transform="rotate(-0 21.863236 25.305042)">20</text>
   </g>
   <g id="text_22">
    <text style="font-size: 5px; font-family: 'Heiti SC', 'Heiti TC', 'Arial Unicode MS', 'DejaVu Sans'; text-anchor: start" x="175.8942" y="176.534349" transform="rotate(-0 175.8942 176.534349)">21</text>
   </g>
   <g id="text_23">
    <text style="font-size: 5px; font-family: 'Heiti SC', 'Heiti TC', 'Arial Unicode MS', 'DejaVu Sans'; text-anchor: start" x="29.207867" y="62.966806" transform="rotate(-0 29.207867 62.966806)">22</text>
   </g>
   <g id="text_24">
    <text style="font-size: 5px; font-family: 'Heiti SC', 'Heiti TC', 'Arial Unicode MS', 'DejaVu Sans'; text-anchor: start" x="23.051549" y="82.565098" transform="rotate(-0 23.051549 82.565098)">23</text>
   </g>
   <g id="text_25">
    <text style="font-size: 5px; font-family: 'Heiti SC', 'Heiti TC', 'Arial Unicode MS', 'DejaVu Sans'; text-anchor: start" x="74.282467" y="90.185536" transform="rotate(-0 74.282467 90.185536)">24</text>
   </g>
   <g id="text_26">
    <text style="font-size: 5px; font-family: 'Heiti SC', 'Heiti TC', 'Arial Unicode MS', 'DejaVu Sans'; text-anchor: start" x="90.898746" y="103.151245" transform="rotate(-0 90.898746 103.151245)">25</text>
   </g>
   <g id="text_27">
    <text style="font-size: 5px; font-family: 'Heiti SC', 'Heiti TC', 'Arial Unicode MS', 'DejaVu Sans'; text-anchor: start" x="105.807482" y="84.714165" transform="rotate(-0 105.807482 84.714165)">26</text>
   </g>
   <g id="text_28">
    <text style="font-size: 5px; font-family: 'Heiti SC', 'Heiti TC', 'Arial Unicode MS', 'DejaVu Sans'; text-anchor: start" x="27.308095" y="83.770101" transform="rotate(-0 27.308095 83.770101)">27</text>
   </g>
   <g id="text_29">
    <text style="font-size: 5px; font-family: 'Heiti SC', 'Heiti TC', 'Arial Unicode MS', 'DejaVu Sans'; text-anchor: start" x="189.173567" y="127.267765" transform="rotate(-0 189.173567 127.267765)">28</text>
   </g>
   <g id="text_30">
    <text style="font-size: 5px; font-family: 'Heiti SC', 'Heiti TC', 'Arial Unicode MS', 'DejaVu Sans'; text-anchor: start" x="99.908628" y="86.145711" transform="rotate(-0 99.908628 86.145711)">29</text>
   </g>
   <g id="text_31">
    <text style="font-size: 8.5px; font-family: 'Heiti SC', 'Heiti TC', 'Arial Unicode MS', 'DejaVu Sans'; text-anchor: middle" x="110.122892" y="13.658672" transform="rotate(-0 110.122892 13.658672)">30 个点，切成 3 簇</text>
   </g>
  </g>
  <g id="axes_2">
   <g id="patch_5">
    <path d="M 219.046265 187.878819
L 548.39952 187.878819
L 548.39952 19.658672
L 219.046265 19.658672
z
" style="fill: #ffffff"/>
   </g>
   <g id="matplotlib.axis_3">
    <g id="xtick_1">
     <g id="text_32">
      <text style="font-size: 5px; font-family: 'Heiti SC', 'Heiti TC', 'Arial Unicode MS', 'DejaVu Sans'" transform="translate(224.38633 199.814756) rotate(-45)">3</text>
     </g>
    </g>
    <g id="xtick_2">
     <g id="text_33">
      <text style="font-size: 5px; font-family: 'Heiti SC', 'Heiti TC', 'Arial Unicode MS', 'DejaVu Sans'" transform="translate(234.24003 202.064239) rotate(-45)">21</text>
     </g>
    </g>
    <g id="xtick_3">
     <g id="text_34">
      <text style="font-size: 5px; font-family: 'Heiti SC', 'Heiti TC', 'Arial Unicode MS', 'DejaVu Sans'" transform="translate(245.218472 202.064239) rotate(-45)">19</text>
     </g>
    </g>
    <g id="xtick_4">
     <g id="text_35">
      <text style="font-size: 5px; font-family: 'Heiti SC', 'Heiti TC', 'Arial Unicode MS', 'DejaVu Sans'" transform="translate(256.196914 202.064239) rotate(-45)">16</text>
     </g>
    </g>
    <g id="xtick_5">
     <g id="text_36">
      <text style="font-size: 5px; font-family: 'Heiti SC', 'Heiti TC', 'Arial Unicode MS', 'DejaVu Sans'" transform="translate(267.175356 202.064239) rotate(-45)">28</text>
     </g>
    </g>
    <g id="xtick_6">
     <g id="text_37">
      <text style="font-size: 5px; font-family: 'Heiti SC', 'Heiti TC', 'Arial Unicode MS', 'DejaVu Sans'" transform="translate(279.278539 199.814756) rotate(-45)">5</text>
     </g>
    </g>
    <g id="xtick_7">
     <g id="text_38">
      <text style="font-size: 5px; font-family: 'Heiti SC', 'Heiti TC', 'Arial Unicode MS', 'DejaVu Sans'" transform="translate(289.13224 202.064239) rotate(-45)">13</text>
     </g>
    </g>
    <g id="xtick_8">
     <g id="text_39">
      <text style="font-size: 5px; font-family: 'Heiti SC', 'Heiti TC', 'Arial Unicode MS', 'DejaVu Sans'" transform="translate(301.235423 199.814756) rotate(-45)">8</text>
     </g>
    </g>
    <g id="xtick_9">
     <g id="text_40">
      <text style="font-size: 5px; font-family: 'Heiti SC', 'Heiti TC', 'Arial Unicode MS', 'DejaVu Sans'" transform="translate(311.089123 202.064239) rotate(-45)">10</text>
     </g>
    </g>
    <g id="xtick_10">
     <g id="text_41">
      <text style="font-size: 5px; font-family: 'Heiti SC', 'Heiti TC', 'Arial Unicode MS', 'DejaVu Sans'" transform="translate(322.067565 202.064239) rotate(-45)">11</text>
     </g>
    </g>
    <g id="xtick_11">
     <g id="text_42">
      <text style="font-size: 5px; font-family: 'Heiti SC', 'Heiti TC', 'Arial Unicode MS', 'DejaVu Sans'" transform="translate(333.046007 202.064239) rotate(-45)">23</text>
     </g>
    </g>
    <g id="xtick_12">
     <g id="text_43">
      <text style="font-size: 5px; font-family: 'Heiti SC', 'Heiti TC', 'Arial Unicode MS', 'DejaVu Sans'" transform="translate(345.149191 199.814756) rotate(-45)">9</text>
     </g>
    </g>
    <g id="xtick_13">
     <g id="text_44">
      <text style="font-size: 5px; font-family: 'Heiti SC', 'Heiti TC', 'Arial Unicode MS', 'DejaVu Sans'" transform="translate(355.002891 202.064239) rotate(-45)">27</text>
     </g>
    </g>
    <g id="xtick_14">
     <g id="text_45">
      <text style="font-size: 5px; font-family: 'Heiti SC', 'Heiti TC', 'Arial Unicode MS', 'DejaVu Sans'" transform="translate(365.981332 202.064239) rotate(-45)">15</text>
     </g>
    </g>
    <g id="xtick_15">
     <g id="text_46">
      <text style="font-size: 5px; font-family: 'Heiti SC', 'Heiti TC', 'Arial Unicode MS', 'DejaVu Sans'" transform="translate(376.959774 202.064239) rotate(-45)">22</text>
     </g>
    </g>
    <g id="xtick_16">
     <g id="text_47">
      <text style="font-size: 5px; font-family: 'Heiti SC', 'Heiti TC', 'Arial Unicode MS', 'DejaVu Sans'" transform="translate(387.938216 202.064239) rotate(-45)">14</text>
     </g>
    </g>
    <g id="xtick_17">
     <g id="text_48">
      <text style="font-size: 5px; font-family: 'Heiti SC', 'Heiti TC', 'Arial Unicode MS', 'DejaVu Sans'" transform="translate(398.916658 202.064239) rotate(-45)">17</text>
     </g>
    </g>
    <g id="xtick_18">
     <g id="text_49">
      <text style="font-size: 5px; font-family: 'Heiti SC', 'Heiti TC', 'Arial Unicode MS', 'DejaVu Sans'" transform="translate(409.8951 202.064239) rotate(-45)">20</text>
     </g>
    </g>
    <g id="xtick_19">
     <g id="text_50">
      <text style="font-size: 5px; font-family: 'Heiti SC', 'Heiti TC', 'Arial Unicode MS', 'DejaVu Sans'" transform="translate(421.998283 199.814756) rotate(-45)">0</text>
     </g>
    </g>
    <g id="xtick_20">
     <g id="text_51">
      <text style="font-size: 5px; font-family: 'Heiti SC', 'Heiti TC', 'Arial Unicode MS', 'DejaVu Sans'" transform="translate(431.851984 202.064239) rotate(-45)">18</text>
     </g>
    </g>
    <g id="xtick_21">
     <g id="text_52">
      <text style="font-size: 5px; font-family: 'Heiti SC', 'Heiti TC', 'Arial Unicode MS', 'DejaVu Sans'" transform="translate(442.830425 202.064239) rotate(-45)">24</text>
     </g>
    </g>
    <g id="xtick_22">
     <g id="text_53">
      <text style="font-size: 5px; font-family: 'Heiti SC', 'Heiti TC', 'Arial Unicode MS', 'DejaVu Sans'" transform="translate(454.933609 199.814756) rotate(-45)">4</text>
     </g>
    </g>
    <g id="xtick_23">
     <g id="text_54">
      <text style="font-size: 5px; font-family: 'Heiti SC', 'Heiti TC', 'Arial Unicode MS', 'DejaVu Sans'" transform="translate(465.912051 199.814756) rotate(-45)">1</text>
     </g>
    </g>
    <g id="xtick_24">
     <g id="text_55">
      <text style="font-size: 5px; font-family: 'Heiti SC', 'Heiti TC', 'Arial Unicode MS', 'DejaVu Sans'" transform="translate(476.890493 199.814756) rotate(-45)">7</text>
     </g>
    </g>
    <g id="xtick_25">
     <g id="text_56">
      <text style="font-size: 5px; font-family: 'Heiti SC', 'Heiti TC', 'Arial Unicode MS', 'DejaVu Sans'" transform="translate(486.744193 202.064239) rotate(-45)">12</text>
     </g>
    </g>
    <g id="xtick_26">
     <g id="text_57">
      <text style="font-size: 5px; font-family: 'Heiti SC', 'Heiti TC', 'Arial Unicode MS', 'DejaVu Sans'" transform="translate(497.722635 202.064239) rotate(-45)">25</text>
     </g>
    </g>
    <g id="xtick_27">
     <g id="text_58">
      <text style="font-size: 5px; font-family: 'Heiti SC', 'Heiti TC', 'Arial Unicode MS', 'DejaVu Sans'" transform="translate(508.701076 202.064239) rotate(-45)">26</text>
     </g>
    </g>
    <g id="xtick_28">
     <g id="text_59">
      <text style="font-size: 5px; font-family: 'Heiti SC', 'Heiti TC', 'Arial Unicode MS', 'DejaVu Sans'" transform="translate(520.80426 199.814756) rotate(-45)">6</text>
     </g>
    </g>
    <g id="xtick_29">
     <g id="text_60">
      <text style="font-size: 5px; font-family: 'Heiti SC', 'Heiti TC', 'Arial Unicode MS', 'DejaVu Sans'" transform="translate(531.782702 199.814756) rotate(-45)">2</text>
     </g>
    </g>
    <g id="xtick_30">
     <g id="text_61">
      <text style="font-size: 5px; font-family: 'Heiti SC', 'Heiti TC', 'Arial Unicode MS', 'DejaVu Sans'" transform="translate(541.636402 202.064239) rotate(-45)">29</text>
     </g>
    </g>
   </g>
   <g id="matplotlib.axis_4"/>
   <g id="LineCollection_1">
    <path d="M 224.535486 187.878819
L 224.535486 184.299545
L 235.513927 184.299545
L 235.513927 187.878819
" clip-path="url(#pb8a5df64db)" style="fill: none; stroke: #ff7f0e; stroke-width: 1.5"/>
    <path d="M 257.470811 187.878819
L 257.470811 186.529495
L 268.449253 186.529495
L 268.449253 187.878819
" clip-path="url(#pb8a5df64db)" style="fill: none; stroke: #ff7f0e; stroke-width: 1.5"/>
    <path d="M 246.492369 187.878819
L 246.492369 185.004898
L 262.960032 185.004898
L 262.960032 186.529495
" clip-path="url(#pb8a5df64db)" style="fill: none; stroke: #ff7f0e; stroke-width: 1.5"/>
    <path d="M 312.36302 187.878819
L 312.36302 186.664614
L 323.341462 186.664614
L 323.341462 187.878819
" clip-path="url(#pb8a5df64db)" style="fill: none; stroke: #ff7f0e; stroke-width: 1.5"/>
    <path d="M 301.384578 187.878819
L 301.384578 185.816388
L 317.852241 185.816388
L 317.852241 186.664614
" clip-path="url(#pb8a5df64db)" style="fill: none; stroke: #ff7f0e; stroke-width: 1.5"/>
    <path d="M 290.406137 187.878819
L 290.406137 182.441181
L 309.61841 182.441181
L 309.61841 185.816388
" clip-path="url(#pb8a5df64db)" style="fill: none; stroke: #ff7f0e; stroke-width: 1.5"/>
    <path d="M 279.427695 187.878819
L 279.427695 180.377192
L 300.012273 180.377192
L 300.012273 182.441181
" clip-path="url(#pb8a5df64db)" style="fill: none; stroke: #ff7f0e; stroke-width: 1.5"/>
    <path d="M 254.726201 185.004898
L 254.726201 179.191752
L 289.719984 179.191752
L 289.719984 180.377192
" clip-path="url(#pb8a5df64db)" style="fill: none; stroke: #ff7f0e; stroke-width: 1.5"/>
    <path d="M 230.024706 184.299545
L 230.024706 174.687692
L 272.223092 174.687692
L 272.223092 179.191752
" clip-path="url(#pb8a5df64db)" style="fill: none; stroke: #ff7f0e; stroke-width: 1.5"/>
   </g>
   <g id="LineCollection_2">
    <path d="M 345.298346 187.878819
L 345.298346 186.926063
L 356.276788 186.926063
L 356.276788 187.878819
" clip-path="url(#pb8a5df64db)" style="fill: none; stroke: #2ca02c; stroke-width: 1.5"/>
    <path d="M 334.319904 187.878819
L 334.319904 186.576712
L 350.787567 186.576712
L 350.787567 186.926063
" clip-path="url(#pb8a5df64db)" style="fill: none; stroke: #2ca02c; stroke-width: 1.5"/>
    <path d="M 367.25523 187.878819
L 367.25523 186.844125
L 378.233671 186.844125
L 378.233671 187.878819
" clip-path="url(#pb8a5df64db)" style="fill: none; stroke: #2ca02c; stroke-width: 1.5"/>
    <path d="M 389.212113 187.878819
L 389.212113 185.815516
L 400.190555 185.815516
L 400.190555 187.878819
" clip-path="url(#pb8a5df64db)" style="fill: none; stroke: #2ca02c; stroke-width: 1.5"/>
    <path d="M 372.74445 186.844125
L 372.74445 184.413673
L 394.701334 184.413673
L 394.701334 185.815516
" clip-path="url(#pb8a5df64db)" style="fill: none; stroke: #2ca02c; stroke-width: 1.5"/>
    <path d="M 422.147439 187.878819
L 422.147439 187.243476
L 433.125881 187.243476
L 433.125881 187.878819
" clip-path="url(#pb8a5df64db)" style="fill: none; stroke: #2ca02c; stroke-width: 1.5"/>
    <path d="M 411.168997 187.878819
L 411.168997 181.301996
L 427.63666 181.301996
L 427.63666 187.243476
" clip-path="url(#pb8a5df64db)" style="fill: none; stroke: #2ca02c; stroke-width: 1.5"/>
    <path d="M 383.722892 184.413673
L 383.722892 179.977558
L 419.402828 179.977558
L 419.402828 181.301996
" clip-path="url(#pb8a5df64db)" style="fill: none; stroke: #2ca02c; stroke-width: 1.5"/>
    <path d="M 342.553735 186.576712
L 342.553735 177.231505
L 401.56286 177.231505
L 401.56286 179.977558
" clip-path="url(#pb8a5df64db)" style="fill: none; stroke: #2ca02c; stroke-width: 1.5"/>
   </g>
   <g id="LineCollection_3">
    <path d="M 466.061206 187.878819
L 466.061206 186.269597
L 477.039648 186.269597
L 477.039648 187.878819
" clip-path="url(#pb8a5df64db)" style="fill: none; stroke: #d62728; stroke-width: 1.5"/>
    <path d="M 455.082764 187.878819
L 455.082764 184.810557
L 471.550427 184.810557
L 471.550427 186.269597
" clip-path="url(#pb8a5df64db)" style="fill: none; stroke: #d62728; stroke-width: 1.5"/>
    <path d="M 444.104322 187.878819
L 444.104322 181.697188
L 463.316596 181.697188
L 463.316596 184.810557
" clip-path="url(#pb8a5df64db)" style="fill: none; stroke: #d62728; stroke-width: 1.5"/>
    <path d="M 488.01809 187.878819
L 488.01809 185.450024
L 498.996532 185.450024
L 498.996532 187.878819
" clip-path="url(#pb8a5df64db)" style="fill: none; stroke: #d62728; stroke-width: 1.5"/>
    <path d="M 531.931857 187.878819
L 531.931857 187.038589
L 542.910299 187.038589
L 542.910299 187.878819
" clip-path="url(#pb8a5df64db)" style="fill: none; stroke: #d62728; stroke-width: 1.5"/>
    <path d="M 520.953415 187.878819
L 520.953415 186.061984
L 537.421078 186.061984
L 537.421078 187.038589
" clip-path="url(#pb8a5df64db)" style="fill: none; stroke: #d62728; stroke-width: 1.5"/>
    <path d="M 509.974974 187.878819
L 509.974974 184.76476
L 529.187247 184.76476
L 529.187247 186.061984
" clip-path="url(#pb8a5df64db)" style="fill: none; stroke: #d62728; stroke-width: 1.5"/>
    <path d="M 493.507311 185.450024
L 493.507311 179.460837
L 519.58111 179.460837
L 519.58111 184.76476
" clip-path="url(#pb8a5df64db)" style="fill: none; stroke: #d62728; stroke-width: 1.5"/>
    <path d="M 453.710459 181.697188
L 453.710459 173.061082
L 506.54421 173.061082
L 506.54421 179.460837
" clip-path="url(#pb8a5df64db)" style="fill: none; stroke: #d62728; stroke-width: 1.5"/>
   </g>
   <g id="LineCollection_4">
    <path d="M 372.058298 177.231505
L 372.058298 122.362529
L 480.127335 122.362529
L 480.127335 173.061082
" clip-path="url(#pb8a5df64db)" style="fill: none; stroke: #8a8a8a; stroke-width: 1.5"/>
    <path d="M 251.123899 174.687692
L 251.123899 27.669155
L 426.092816 27.669155
L 426.092816 122.362529
" clip-path="url(#pb8a5df64db)" style="fill: none; stroke: #8a8a8a; stroke-width: 1.5"/>
   </g>
   <g id="line2d_1">
    <path d="M 219.046265 147.711806
L 548.39952 147.711806
" clip-path="url(#pb8a5df64db)" style="fill: none; stroke-dasharray: 2.96,1.28; stroke-dashoffset: 0; stroke: #c94c4c; stroke-width: 0.8"/>
   </g>
   <g id="patch_6">
    <path d="M 219.046265 187.878819
L 219.046265 19.658672
" style="fill: none; stroke: #000000; stroke-width: 0.8; stroke-linejoin: miter; stroke-linecap: square"/>
   </g>
   <g id="patch_7">
    <path d="M 219.046265 187.878819
L 548.39952 187.878819
" style="fill: none; stroke: #000000; stroke-width: 0.8; stroke-linejoin: miter; stroke-linecap: square"/>
   </g>
   <g id="text_62">
    <text style="font-size: 8.5px; font-family: 'Heiti SC', 'Heiti TC', 'Arial Unicode MS', 'DejaVu Sans'; text-anchor: middle" x="383.722892" y="13.658672" transform="rotate(-0 383.722892 13.658672)">树状图：纵轴是合并时的距离；在红线处横切得 3 簇</text>
   </g>
  </g>
 </g>
 <defs>
  <clipPath id="pdfcf98d29f">
   <rect x="7.2" y="19.658672" width="205.845785" height="168.220147"/>
  </clipPath>
  <clipPath id="pb8a5df64db">
   <rect x="219.046265" y="19.658672" width="329.353255" height="168.220147"/>
  </clipPath>
 </defs>
</svg>
