<svg xmlns="http://www.w3.org/2000/svg" viewBox="0 0 760 325" font-family="-apple-system, BlinkMacSystemFont, 'Segoe UI', 'PingFang SC', 'Hiragino Sans GB', 'Microsoft YaHei', sans-serif" font-size="13">
<defs><marker id="ar" viewBox="0 0 10 10" refX="9" refY="5" markerWidth="6" markerHeight="6" orient="auto-start-reverse"><path d="M0,0 L10,5 L0,10 z" fill="context-stroke"/></marker></defs>
<text x="380" y="22" fill="#222" font-size="14" text-anchor="middle" font-weight="600">卷积 = 一个小窗口（kernel）在图上滑动，每个位置做一次「对应相乘再相加」——同一组权重用在每个位置</text>
<text x="145.0" y="58" fill="#333" font-size="12" text-anchor="middle" font-weight="600">输入 5×5</text>
<rect x="60" y="70" width="34" height="34" fill="#fff" stroke="#999" stroke-width="1"/>
<text x="77.0" y="92.0" fill="#222" font-size="13" text-anchor="middle" font-weight="normal">1</text>
<rect x="94" y="70" width="34" height="34" fill="#fff3e0" stroke="#c98a00" stroke-width="2"/>
<text x="111.0" y="92.0" fill="#222" font-size="13" text-anchor="middle" font-weight="normal">2</text>
<rect x="128" y="70" width="34" height="34" fill="#fff3e0" stroke="#c98a00" stroke-width="2"/>
<text x="145.0" y="92.0" fill="#222" font-size="13" text-anchor="middle" font-weight="normal">0</text>
<rect x="162" y="70" width="34" height="34" fill="#fff3e0" stroke="#c98a00" stroke-width="2"/>
<text x="179.0" y="92.0" fill="#222" font-size="13" text-anchor="middle" font-weight="normal">1</text>
<rect x="196" y="70" width="34" height="34" fill="#fff" stroke="#999" stroke-width="1"/>
<text x="213.0" y="92.0" fill="#222" font-size="13" text-anchor="middle" font-weight="normal">3</text>
<rect x="60" y="104" width="34" height="34" fill="#fff" stroke="#999" stroke-width="1"/>
<text x="77.0" y="126.0" fill="#222" font-size="13" text-anchor="middle" font-weight="normal">0</text>
<rect x="94" y="104" width="34" height="34" fill="#fff3e0" stroke="#c98a00" stroke-width="2"/>
<text x="111.0" y="126.0" fill="#222" font-size="13" text-anchor="middle" font-weight="normal">1</text>
<rect x="128" y="104" width="34" height="34" fill="#fff3e0" stroke="#c98a00" stroke-width="2"/>
<text x="145.0" y="126.0" fill="#222" font-size="13" text-anchor="middle" font-weight="normal">2</text>
<rect x="162" y="104" width="34" height="34" fill="#fff3e0" stroke="#c98a00" stroke-width="2"/>
<text x="179.0" y="126.0" fill="#222" font-size="13" text-anchor="middle" font-weight="normal">3</text>
<rect x="196" y="104" width="34" height="34" fill="#fff" stroke="#999" stroke-width="1"/>
<text x="213.0" y="126.0" fill="#222" font-size="13" text-anchor="middle" font-weight="normal">1</text>
<rect x="60" y="138" width="34" height="34" fill="#fff" stroke="#999" stroke-width="1"/>
<text x="77.0" y="160.0" fill="#222" font-size="13" text-anchor="middle" font-weight="normal">1</text>
<rect x="94" y="138" width="34" height="34" fill="#fff3e0" stroke="#c98a00" stroke-width="2"/>
<text x="111.0" y="160.0" fill="#222" font-size="13" text-anchor="middle" font-weight="normal">0</text>
<rect x="128" y="138" width="34" height="34" fill="#fff3e0" stroke="#c98a00" stroke-width="2"/>
<text x="145.0" y="160.0" fill="#222" font-size="13" text-anchor="middle" font-weight="normal">1</text>
<rect x="162" y="138" width="34" height="34" fill="#fff3e0" stroke="#c98a00" stroke-width="2"/>
<text x="179.0" y="160.0" fill="#222" font-size="13" text-anchor="middle" font-weight="normal">2</text>
<rect x="196" y="138" width="34" height="34" fill="#fff" stroke="#999" stroke-width="1"/>
<text x="213.0" y="160.0" fill="#222" font-size="13" text-anchor="middle" font-weight="normal">0</text>
<rect x="60" y="172" width="34" height="34" fill="#fff" stroke="#999" stroke-width="1"/>
<text x="77.0" y="194.0" fill="#222" font-size="13" text-anchor="middle" font-weight="normal">2</text>
<rect x="94" y="172" width="34" height="34" fill="#fff" stroke="#999" stroke-width="1"/>
<text x="111.0" y="194.0" fill="#222" font-size="13" text-anchor="middle" font-weight="normal">1</text>
<rect x="128" y="172" width="34" height="34" fill="#fff" stroke="#999" stroke-width="1"/>
<text x="145.0" y="194.0" fill="#222" font-size="13" text-anchor="middle" font-weight="normal">0</text>
<rect x="162" y="172" width="34" height="34" fill="#fff" stroke="#999" stroke-width="1"/>
<text x="179.0" y="194.0" fill="#222" font-size="13" text-anchor="middle" font-weight="normal">1</text>
<rect x="196" y="172" width="34" height="34" fill="#fff" stroke="#999" stroke-width="1"/>
<text x="213.0" y="194.0" fill="#222" font-size="13" text-anchor="middle" font-weight="normal">1</text>
<rect x="60" y="206" width="34" height="34" fill="#fff" stroke="#999" stroke-width="1"/>
<text x="77.0" y="228.0" fill="#222" font-size="13" text-anchor="middle" font-weight="normal">0</text>
<rect x="94" y="206" width="34" height="34" fill="#fff" stroke="#999" stroke-width="1"/>
<text x="111.0" y="228.0" fill="#222" font-size="13" text-anchor="middle" font-weight="normal">3</text>
<rect x="128" y="206" width="34" height="34" fill="#fff" stroke="#999" stroke-width="1"/>
<text x="145.0" y="228.0" fill="#222" font-size="13" text-anchor="middle" font-weight="normal">1</text>
<rect x="162" y="206" width="34" height="34" fill="#fff" stroke="#999" stroke-width="1"/>
<text x="179.0" y="228.0" fill="#222" font-size="13" text-anchor="middle" font-weight="normal">0</text>
<rect x="196" y="206" width="34" height="34" fill="#fff" stroke="#999" stroke-width="1"/>
<text x="213.0" y="228.0" fill="#222" font-size="13" text-anchor="middle" font-weight="normal">2</text>
<rect x="94" y="70" width="102" height="102" fill="none" stroke="#c98a00" stroke-width="3"/>
<text x="145.0" y="258" fill="#666" font-size="11" text-anchor="middle" font-weight="normal">橙框：kernel 当前盖住的 3×3</text>
<text x="341.0" y="92" fill="#333" font-size="12" text-anchor="middle" font-weight="600">kernel 3×3（可学习的 9 个权重）</text>
<rect x="290" y="104" width="34" height="34" fill="#eef6ff" stroke="#1f6fb2"/>
<text x="307.0" y="126.0" fill="#1f6fb2" font-size="13" text-anchor="middle" font-weight="600">1</text>
<rect x="324" y="104" width="34" height="34" fill="#eef6ff" stroke="#1f6fb2"/>
<text x="341.0" y="126.0" fill="#1f6fb2" font-size="13" text-anchor="middle" font-weight="600">0</text>
<rect x="358" y="104" width="34" height="34" fill="#eef6ff" stroke="#1f6fb2"/>
<text x="375.0" y="126.0" fill="#1f6fb2" font-size="13" text-anchor="middle" font-weight="600">-1</text>
<rect x="290" y="138" width="34" height="34" fill="#eef6ff" stroke="#1f6fb2"/>
<text x="307.0" y="160.0" fill="#1f6fb2" font-size="13" text-anchor="middle" font-weight="600">1</text>
<rect x="324" y="138" width="34" height="34" fill="#eef6ff" stroke="#1f6fb2"/>
<text x="341.0" y="160.0" fill="#1f6fb2" font-size="13" text-anchor="middle" font-weight="600">0</text>
<rect x="358" y="138" width="34" height="34" fill="#eef6ff" stroke="#1f6fb2"/>
<text x="375.0" y="160.0" fill="#1f6fb2" font-size="13" text-anchor="middle" font-weight="600">-1</text>
<rect x="290" y="172" width="34" height="34" fill="#eef6ff" stroke="#1f6fb2"/>
<text x="307.0" y="194.0" fill="#1f6fb2" font-size="13" text-anchor="middle" font-weight="600">1</text>
<rect x="324" y="172" width="34" height="34" fill="#eef6ff" stroke="#1f6fb2"/>
<text x="341.0" y="194.0" fill="#1f6fb2" font-size="13" text-anchor="middle" font-weight="600">0</text>
<rect x="358" y="172" width="34" height="34" fill="#eef6ff" stroke="#1f6fb2"/>
<text x="375.0" y="194.0" fill="#1f6fb2" font-size="13" text-anchor="middle" font-weight="600">-1</text>
<text x="341.0" y="224" fill="#1f6fb2" font-size="11" text-anchor="middle" font-weight="normal">这个 kernel 在找「左亮右暗」的竖边</text>
<text x="571.0" y="92" fill="#333" font-size="12" text-anchor="middle" font-weight="600">输出 3×3（特征图）</text>
<rect x="520" y="104" width="34" height="34" fill="#fff" stroke="#999" stroke-width="1"/>
<text x="537.0" y="126.0" fill="#222" font-size="13" text-anchor="middle" font-weight="normal">-1</text>
<rect x="554" y="104" width="34" height="34" fill="#fff3e0" stroke="#c98a00" stroke-width="2"/>
<text x="571.0" y="126.0" fill="#222" font-size="13" text-anchor="middle" font-weight="normal">-3</text>
<rect x="588" y="104" width="34" height="34" fill="#fff" stroke="#999" stroke-width="1"/>
<text x="605.0" y="126.0" fill="#222" font-size="13" text-anchor="middle" font-weight="normal">-1</text>
<rect x="520" y="138" width="34" height="34" fill="#fff" stroke="#999" stroke-width="1"/>
<text x="537.0" y="160.0" fill="#222" font-size="13" text-anchor="middle" font-weight="normal">0</text>
<rect x="554" y="138" width="34" height="34" fill="#fff" stroke="#999" stroke-width="1"/>
<text x="571.0" y="160.0" fill="#222" font-size="13" text-anchor="middle" font-weight="normal">-4</text>
<rect x="588" y="138" width="34" height="34" fill="#fff" stroke="#999" stroke-width="1"/>
<text x="605.0" y="160.0" fill="#222" font-size="13" text-anchor="middle" font-weight="normal">1</text>
<rect x="520" y="172" width="34" height="34" fill="#fff" stroke="#999" stroke-width="1"/>
<text x="537.0" y="194.0" fill="#222" font-size="13" text-anchor="middle" font-weight="normal">1</text>
<rect x="554" y="172" width="34" height="34" fill="#fff" stroke="#999" stroke-width="1"/>
<text x="571.0" y="194.0" fill="#222" font-size="13" text-anchor="middle" font-weight="normal">1</text>
<rect x="588" y="172" width="34" height="34" fill="#fff" stroke="#999" stroke-width="1"/>
<text x="605.0" y="194.0" fill="#222" font-size="13" text-anchor="middle" font-weight="normal">-1</text>
<line x1="236" y1="121.0" x2="282" y2="121.0" stroke="#555" stroke-width="1.5" marker-end="url(#ar)"/>
<line x1="398" y1="155.0" x2="512" y2="155.0" stroke="#555" stroke-width="1.5" marker-end="url(#ar)"/>
<text x="380" y="290" fill="#333" font-size="12" text-anchor="middle" font-weight="normal">橙框位置的计算：2·1+0·0+1·(−1) + 1·1+2·0+3·(−1) + 0·1+1·0+2·(−1) = -3，写进输出的对应格子；窗口右移一格、再算一次……</text>
<text x="380" y="310" fill="#333" font-size="12" text-anchor="middle" font-weight="normal">与全连接层比：一个全连接层从 25 维到 9 维要 225 个权重，卷积只有 9 个——它是「被约束的线性层」：只看局部、处处共享。</text>
</svg>
